<svg id="glipy_copy_5" viewBox="0 0 64 64" xmlns="http://www.w3.org/2000/svg" xmlns:xlink="http://www.w3.org/1999/xlink" data-name="glipy copy 5"><linearGradient id="linear-gradient" gradientUnits="userSpaceOnUse" x1="2" x2="62" y1="32" y2="32"><stop offset="0" stop-color="#7f00ff"/><stop offset="1" stop-color="#e100ff"/></linearGradient><path d="m20.77867 52h25.25a.71629.71629 0 0 0 .71411-.71429v-6.32148h-25.96411a3.518 3.518 0 0 0 0 7.03577zm24.53565-5.60718v4.17859h-24.53565a2.0894 2.0894 0 0 1 0-4.17859zm.71435-34.39282h-23.8501a4.9262 4.9262 0 0 0 -4.92138 4.92145v28.09277a4.873 4.873 0 0 1 3.52148-1.47858h25.96411v-30.82135a.71625.71625 0 0 0 -.71411-.71429zm-2.63574 19.47144a2.51029 2.51029 0 0 1 -1.69287.73565 10.65 10.65 0 0 1 -14.64295 5.74291 5.47566 5.47566 0 0 1 -2.3999.79291c-1.71448-.07965-1.67932-1.68207-.86438-3.3a10.6584 10.6584 0 0 1 -2.6571-6.93573 2.11877 2.11877 0 0 1 -.64295-.44287 2.19549 2.19549 0 0 1 1.46448-3.72144c2.59009-6.61718 11.61975-8.66223 16.82849-3.88555 3.01929-1.51648 4.23657.30914 2.49268 3.25689a10.303 10.303 0 0 1 1.043 3.52863 2.5432 2.5432 0 0 1 1.0715 4.2286zm-18.52856 5.0357a7.82562 7.82562 0 0 0 .73559.57141 2.28144 2.28144 0 0 1 -.94275.25714 1.91071 1.91071 0 0 1 .20716-.82855zm14.92846-8.64288a2.57106 2.57106 0 0 1 1.0857-.6286 8.42025 8.42025 0 0 0 -.50708-2.03566 46.25621 46.25621 0 0 1 -5.4358 6.4 51.17326 51.17326 0 0 1 -6.39282 5.43573 9.23655 9.23655 0 0 0 9.72144-2.10718 9.01592 9.01592 0 0 0 2.03564-3.07141 2.55444 2.55444 0 0 1 -.50708-3.99288zm-2.6499 5.94287-2.43579 2.43573a.71483.71483 0 0 1 -1.01428-1.0072l2.44287-2.43566a.71231.71231 0 0 1 1.0072 1.00713zm5.2428-3.35a1.11892 1.11892 0 0 1 -1.58582-1.57855 1.11892 1.11892 0 0 1 1.58582 1.57851zm-1.97144-8.19281c-.17859-.25714-.37146-.5-.57141-.73578a1.98387 1.98387 0 0 1 .82861-.2 2.14782 2.14782 0 0 1 -.2572.93574zm-6.48572 8.32855a40.6283 40.6283 0 0 1 -6.8999 5.7143 8.39917 8.39917 0 0 1 -1.47851-1.10717 39.39 39.39 0 0 1 5.85693-7.12854 39.70821 39.70821 0 0 1 7.12158-5.86432 8.29123 8.29123 0 0 1 1.10718 1.48572 40.50566 40.50566 0 0 1 -5.70728 6.89997zm-11.13574-4.07151a.75359.75359 0 0 1 -1.50708 0 .75359.75359 0 0 1 1.50708 0zm14.26428-5.07136c.13575-.08569.26429-.17139.38575-.2428a9.23313 9.23313 0 0 0 -12.17859.72138 9.10378 9.10378 0 0 0 -1.93579 2.83575 1.85419 1.85419 0 0 1 .25732.21424 2.18332 2.18332 0 0 1 -1.0144 3.65716 9.01833 9.01833 0 0 0 1.95727 5.46427 48.69281 48.69281 0 0 1 5.86426-7.04291 45.50133 45.50133 0 0 1 6.66418-5.60709zm-5.79992 1.6 2.43567-2.43567a.71481.71481 0 0 1 1.01428 1.00714l-2.43579 2.43573a.71477.71477 0 0 1 -1.01416-1.00727zm-1.42847-1.4286-1.21435 1.22143a.71781.71781 0 0 1 -1.00733 0 .70738.70738 0 0 1 0-1.01428l1.21436-1.21429a.71235.71235 0 0 1 1.00732 1.00714zm2.17128-19.6214a30 30 0 1 0 30 30 30.034 30.034 0 0 0 -30-30zm0 58.38965a28.38965 28.38965 0 1 1 28.38963-28.38965 28.4223 28.4223 0 0 1 -28.38963 28.38965z" fill="url(#linear-gradient)"/></svg>